<svg width="28" height="29" viewBox="0 0 28 29" fill="none" xmlns="http://www.w3.org/2000/svg">
<path opacity="0.15" d="M5.83333 21.4998H22.1667C23.4553 21.4998 24.5 20.4552 24.5 19.1665V12.1665H3.5V19.1665C3.5 20.4552 4.54467 21.4998 5.83333 21.4998Z" fill="#099235"/>
<path d="M24.5 12.1667V9.83333C24.5 8.54467 23.4553 7.5 22.1667 7.5H5.83333C4.54467 7.5 3.5 8.54467 3.5 9.83333V12.1667M24.5 12.1667V19.1667C24.5 20.4553 23.4553 21.5 22.1667 21.5H5.83333C4.54467 21.5 3.5 20.4553 3.5 19.1667V12.1667M24.5 12.1667H3.5M7 18H11.6667" stroke="#099235" stroke-width="1.5" stroke-linecap="round" stroke-linejoin="round"/>
</svg>
