<svg width="18" height="18" viewBox="0 0 18 18" fill="none" xmlns="http://www.w3.org/2000/svg">
<path opacity="0.15" d="M5.25 5.17084V3H12.75V5.17084C12.75 5.46697 12.6623 5.75649 12.4981 6.00289L11.0547 8.16795C10.7188 8.6718 10.7188 9.3282 11.0547 9.83205L12.4981 11.9971C12.6623 12.2435 12.75 12.533 12.75 12.8292V15H5.25V12.8292C5.25 12.533 5.33766 12.2435 5.50192 11.9971L6.9453 9.83205C7.2812 9.3282 7.2812 8.6718 6.9453 8.16795L5.50192 6.00289C5.33766 5.75649 5.25 5.46697 5.25 5.17084Z" fill="#099235"/>
<path d="M12.75 3V5.17084C12.75 5.46697 12.6623 5.75649 12.4981 6.00289L11.0547 8.16795C10.7188 8.6718 10.7188 9.3282 11.0547 9.83205L12.4981 11.9971C12.6623 12.2435 12.75 12.533 12.75 12.8292V15M12.75 3H14.25M12.75 3H5.25M12.75 15H14.25M12.75 15H5.25M5.25 3V5.17084C5.25 5.46697 5.33766 5.75649 5.50192 6.00289L6.9453 8.16795C7.2812 8.6718 7.2812 9.3282 6.9453 9.83205L5.50192 11.9971C5.33766 12.2435 5.25 12.533 5.25 12.8292V15M5.25 3H3.75M5.25 15H3.75" stroke="#099235" stroke-width="1.5" stroke-linecap="round" stroke-linejoin="round"/>
</svg>
