<svg width="16" height="16" viewBox="0 0 16 16" fill="none" xmlns="http://www.w3.org/2000/svg">
<path d="M10.5291 0H5.4707V16H10.5291V0Z" fill="white"/>
<path d="M12.6318 9.47502L13.6803 7.3185L11.4741 7.21415L11.3151 6.31974L9.52626 8.15825L10.5797 4.32222L9.52626 4.58558L8.00079 2.32471L6.47533 4.58558L5.42688 4.32222L6.47533 8.15825L4.68651 6.31974L4.53247 7.21415L2.32129 7.3185L3.3747 9.47502L2.74365 10.1061L6.26663 11.0551L5.58092 12.2079L7.73744 11.7359L7.21073 13.316L8.00079 13.6837L8.79085 13.316L8.26415 11.7359L10.4207 12.2079L9.73495 11.0551L13.2629 10.1061L12.6318 9.47502Z" fill="#099235"/>
<path d="M5.48075 0C2.44472 0.0645963 0 2.5441 0 5.59503V10.395C0 13.4509 2.44472 15.9304 5.48075 15.995V0Z" fill="#099235"/>
<path d="M5.47861 10.8401V7.13327L4.68358 6.31836L4.52954 7.21277L2.31836 7.31712L3.37178 9.47364L2.74072 10.1047L5.47861 10.8401Z" fill="white"/>
<path d="M10.519 0V16C13.5551 15.9354 15.9998 13.4559 15.9998 10.4V5.6C15.9998 2.5441 13.56 0.0645963 10.519 0Z" fill="#099235"/>
<path d="M11.4726 7.21277L11.3136 6.31836L10.5186 7.13327V10.8401L13.2614 10.1047L12.6304 9.47364L13.6788 7.31712L11.4726 7.21277Z" fill="white"/>
</svg>
