<svg width="18" height="18" viewBox="0 0 18 18" fill="none" xmlns="http://www.w3.org/2000/svg">
<path opacity="0.15" fill-rule="evenodd" clip-rule="evenodd" d="M9 15.75C12.7279 15.75 15.75 12.7279 15.75 9C15.75 5.27208 12.7279 2.25 9 2.25C5.27208 2.25 2.25 5.27208 2.25 9C2.25 12.7279 5.27208 15.75 9 15.75ZM6.75 8.25C7.57843 8.25 8.25 7.57843 8.25 6.75C8.25 5.92157 7.57843 5.25 6.75 5.25C5.92157 5.25 5.25 5.92157 5.25 6.75C5.25 7.57843 5.92157 8.25 6.75 8.25ZM11.25 12.75C12.0784 12.75 12.75 12.0784 12.75 11.25C12.75 10.4216 12.0784 9.75 11.25 9.75C10.4216 9.75 9.75 10.4216 9.75 11.25C9.75 12.0784 10.4216 12.75 11.25 12.75Z" fill="#099235"/>
<path d="M6 12L12 6M15.75 9C15.75 12.7279 12.7279 15.75 9 15.75C5.27208 15.75 2.25 12.7279 2.25 9C2.25 5.27208 5.27208 2.25 9 2.25C12.7279 2.25 15.75 5.27208 15.75 9ZM12.75 11.25C12.75 12.0784 12.0784 12.75 11.25 12.75C10.4216 12.75 9.75 12.0784 9.75 11.25C9.75 10.4216 10.4216 9.75 11.25 9.75C12.0784 9.75 12.75 10.4216 12.75 11.25ZM8.25 6.75C8.25 7.57843 7.57843 8.25 6.75 8.25C5.92157 8.25 5.25 7.57843 5.25 6.75C5.25 5.92157 5.92157 5.25 6.75 5.25C7.57843 5.25 8.25 5.92157 8.25 6.75Z" stroke="#099235" stroke-width="1.5" stroke-linecap="round" stroke-linejoin="round"/>
</svg>
