<svg width="19" height="18" viewBox="0 0 19 18" fill="none" xmlns="http://www.w3.org/2000/svg">
<path opacity="0.2" d="M17.25 8.99413C17.25 10.6258 16.7662 12.2209 15.8596 13.5776C14.9531 14.9343 13.6646 15.9917 12.1571 16.6161C10.6497 17.2405 8.99089 17.4039 7.39049 17.0856C5.79016 16.7673 4.32015 15.9815 3.16636 14.8277C2.01259 13.6739 1.22685 12.2039 0.908528 10.6036C0.590198 9.00333 0.753568 7.34453 1.378 5.83699C2.00242 4.32951 3.05984 3.04104 4.41654 2.13452C5.77324 1.22799 7.36829 0.744141 8.99999 0.744141C11.188 0.744141 13.2865 1.61333 14.8336 3.16051C16.3808 4.70768 17.25 6.80609 17.25 8.99413Z" fill="#099235"/>
<path d="M9.75056 4.49544V8.57077L13.1368 10.6023C13.3074 10.7048 13.4302 10.8708 13.4784 11.0638C13.5265 11.2569 13.4962 11.4612 13.3937 11.6317C13.2913 11.8023 13.1252 11.9252 12.9322 11.9733C12.7392 12.0215 12.5349 11.991 12.3643 11.8886L8.61426 9.63857C8.50336 9.57187 8.41146 9.47757 8.34776 9.36487C8.28396 9.25217 8.25056 9.12487 8.25056 8.99547V4.49544C8.25056 4.29653 8.32956 4.10576 8.47026 3.96512C8.61086 3.82447 8.80166 3.74545 9.00056 3.74545C9.19946 3.74545 9.39026 3.82447 9.53086 3.96512C9.67156 4.10576 9.75056 4.29653 9.75056 4.49544ZM18.0005 2.24545C17.8016 2.24545 17.6108 2.32447 17.4702 2.46512C17.3295 2.60577 17.2505 2.79654 17.2505 2.99545V4.68294C16.6552 3.99294 16.0477 3.32826 15.3642 2.63639C14.1136 1.38549 12.5219 0.53091 10.7882 0.179441C9.05456 -0.172029 7.25576 -0.00480872 5.61654 0.6602C3.97736 1.32522 2.57051 2.45854 1.57176 3.91855C0.572999 5.37856 0.0266395 7.10057 0.000949512 8.86927C-0.0247405 10.6381 0.471379 12.3752 1.42731 13.8636C2.38324 15.352 3.75659 16.5257 5.37576 17.238C6.99494 17.9504 8.78816 18.1698 10.5313 17.8688C12.2745 17.5678 13.8903 16.7598 15.1767 15.5458C15.2484 15.4781 15.306 15.3969 15.3463 15.3069C15.3866 15.2169 15.4088 15.1199 15.4115 15.0214C15.4143 14.9228 15.3977 14.8247 15.3625 14.7326C15.3274 14.6405 15.2745 14.5562 15.2067 14.4845C15.139 14.4129 15.0579 14.3553 14.9679 14.315C14.8779 14.2747 14.7809 14.2525 14.6823 14.2497C14.5838 14.247 14.4857 14.2636 14.3935 14.2987C14.3014 14.3339 14.2171 14.3868 14.1455 14.4545C13.0731 15.4652 11.7267 16.1376 10.2744 16.3876C8.82206 16.6377 7.32826 16.4544 5.97957 15.8605C4.63084 15.2667 3.48695 14.2887 2.69073 13.0487C1.89451 11.8086 1.48125 10.3615 1.50255 8.88797C1.52385 7.41447 1.97877 5.97986 2.81051 4.76335C3.64223 3.54686 4.81392 2.60233 6.17925 2.04774C7.54456 1.49315 9.04306 1.35308 10.4875 1.645C11.932 1.93693 13.2584 2.64793 14.3011 3.6892C15.0642 4.46169 15.7327 5.20607 16.4067 5.99544H14.2505C14.0516 5.99544 13.8608 6.07446 13.7202 6.21511C13.5795 6.35576 13.5006 6.54653 13.5006 6.74544C13.5006 6.94435 13.5795 7.13507 13.7202 7.27577C13.8608 7.41647 14.0516 7.49547 14.2505 7.49547H18.0005C18.1994 7.49547 18.3902 7.41647 18.5308 7.27577C18.6715 7.13507 18.7505 6.94435 18.7505 6.74544V2.99545C18.7505 2.79654 18.6715 2.60577 18.5308 2.46512C18.3902 2.32447 18.1994 2.24545 18.0005 2.24545Z" fill="#099235"/>
</svg>
