<svg width="49" height="48" viewBox="0 0 49 48" fill="none" xmlns="http://www.w3.org/2000/svg">
<rect x="0.722656" y="0.5" width="47" height="47" rx="23.5" fill="white"/>
<rect x="0.722656" y="0.5" width="47" height="47" rx="23.5" stroke="#D1D2D2"/>
<g clip-path="url(#clip0_36_219)">
<path d="M29.0652 18.8159C26.7933 18.8159 24.7627 19.9934 24.7627 22.1697C24.7627 24.6647 28.3639 24.8372 28.3639 26.0909C28.3639 26.619 27.7589 27.0915 26.7258 27.0915C25.2595 27.0915 24.1639 26.4315 24.1639 26.4315L23.6952 28.6272C23.6952 28.6272 24.9577 29.1847 26.6333 29.1847C29.1177 29.1847 31.072 27.949 31.072 25.7359C31.072 23.099 27.4558 22.9322 27.4558 21.7684C27.4558 21.3547 27.952 20.9022 28.9827 20.9022C30.1452 20.9022 31.0933 21.3822 31.0933 21.3822L31.552 19.2615C31.5527 19.2615 30.5208 18.8159 29.0652 18.8159ZM8.27766 18.9759L8.22266 19.2965C8.22266 19.2965 9.17828 19.4715 10.0395 19.8203C11.1483 20.2203 11.227 20.4534 11.4139 21.1772L13.4483 29.0197H16.1752L20.3764 18.9765H17.6558L14.9564 25.8047L13.8545 20.0165C13.7533 19.354 13.242 18.9759 12.6152 18.9759H8.27766ZM21.4708 18.9759L19.3364 29.019H21.9308L24.0577 18.9759H21.4708ZM35.9414 18.9759C35.3158 18.9759 34.9845 19.3109 34.7408 19.8959L30.9395 29.019H33.6602L34.1864 27.4984H37.5014L37.8214 29.019H40.2227L38.1283 18.9759H35.9414ZM36.2952 21.6897L37.1014 25.4584H34.9408L36.2952 21.6897Z" fill="#1434CB"/>
</g>
<defs>
<clipPath id="clip0_36_219">
<rect width="32" height="32" fill="white" transform="translate(8.22266 8)"/>
</clipPath>
</defs>
</svg>
