<svg width="103" height="16" viewBox="0 0 103 16" fill="none" xmlns="http://www.w3.org/2000/svg">
<path d="M10.5291 0H5.4707V16H10.5291V0Z" fill="white"/>
<path d="M12.6309 9.47502L13.6793 7.3185L11.4731 7.21415L11.3141 6.31974L9.52528 8.15825L10.5787 4.32222L9.52528 4.58558L7.99981 2.32471L6.47435 4.58558L5.4259 4.32222L6.47435 8.15825L4.68553 6.31974L4.53149 7.21415L2.32031 7.3185L3.37373 9.47502L2.74267 10.1061L6.26565 11.0551L5.57994 12.2079L7.73646 11.7359L7.20975 13.316L7.99981 13.6837L8.78988 13.316L8.26317 11.7359L10.4197 12.2079L9.73398 11.0551L13.2619 10.1061L12.6309 9.47502Z" fill="#099235"/>
<path d="M5.48075 0C2.44472 0.0645963 0 2.5441 0 5.59503V10.395C0 13.4509 2.44472 15.9304 5.48075 15.995V0Z" fill="#099235"/>
<path d="M5.47861 10.8403V7.13351L4.68358 6.3186L4.52954 7.21301L2.31836 7.31736L3.37178 9.47388L2.74072 10.1049L5.47861 10.8403Z" fill="white"/>
<path d="M10.5195 0V16C13.5556 15.9354 16.0003 13.4559 16.0003 10.4V5.6C16.0003 2.5441 13.5605 0.0645963 10.5195 0Z" fill="#099235"/>
<path d="M11.4736 7.21301L11.3146 6.3186L10.5195 7.13351V10.8403L13.2624 10.1049L12.6313 9.47388L13.6798 7.31736L11.4736 7.21301Z" fill="white"/>
<path d="M24.518 14.5L20.396 1.9H22.268L25.652 12.448C25.706 12.628 25.742 12.88 25.742 13.078H25.778C25.778 12.88 25.778 12.628 25.832 12.448L28.352 1.9H30.584L33.068 12.448C33.122 12.628 33.122 12.88 33.122 13.06H33.158C33.158 12.88 33.194 12.646 33.248 12.466L36.668 1.9H38.54L34.418 14.5H31.898L29.504 4.348C29.486 4.294 29.486 4.204 29.486 4.15H29.45C29.45 4.204 29.468 4.294 29.45 4.348L27.02 14.5H24.518ZM39.2916 1.9H50.1276V3.556H46.2036C45.8436 3.556 45.4296 3.376 45.1776 3.106L45.1416 3.142C45.4116 3.394 45.5916 3.808 45.5916 4.168V14.5H43.8276V3.556H39.2916V1.9ZM54.48 8.2C54.48 3.826 57.126 1.738 60.618 1.774C63.516 1.81 65.892 3.232 66.594 6.202L64.884 6.67C64.452 4.852 62.958 3.556 60.618 3.556C57.828 3.538 56.244 5.32 56.244 8.2C56.244 11.116 57.936 12.862 60.618 12.844C62.994 12.844 64.452 11.548 64.884 9.73L66.594 10.198C65.892 13.168 63.516 14.59 60.618 14.626C57.126 14.662 54.48 12.574 54.48 8.2ZM68.0067 14.5H66.0987L70.8507 1.9H73.4247L78.1767 14.5H76.2867L75.1167 11.494H69.1407L68.0067 14.5ZM72.1287 3.484L69.6987 9.928C71.2107 9.928 72.2547 9.91 73.0287 10C73.7847 10.072 74.5407 10.396 75.0627 11.314L72.1287 3.484ZM80.8923 14.5H79.1103V1.9H84.8703C87.7503 1.9 89.4783 3.034 89.4783 5.554C89.4783 6.706 89.0283 7.282 88.5423 7.714C88.0743 8.236 87.1203 8.506 86.4183 8.632V8.668C86.7963 8.596 87.2643 8.506 87.7143 8.506C88.1103 8.506 88.4703 8.578 88.7403 8.794C89.2263 9.1 89.6043 9.622 89.6043 10.864L89.6223 14.5H87.8403V10.972C87.8403 10.288 87.5163 9.964 86.5623 9.964L80.8923 9.982V14.5ZM80.8923 8.416H84.5283C86.4723 8.416 87.8583 7.336 87.8583 5.914C87.8583 4.042 86.6703 3.43 84.7263 3.43H80.8923V8.416ZM95.6644 14.5H90.6064V1.9H95.6644C99.1744 1.9 102.072 3.916 102.072 8.2C102.072 12.484 99.1744 14.5 95.6644 14.5ZM95.7544 3.556H91.1644C91.7044 3.556 92.3704 3.664 92.3704 4.114V12.844H95.7544C97.9144 12.844 100.308 11.602 100.308 8.2C100.308 4.888 97.9684 3.556 95.7544 3.556Z" fill="#111111"/>
</svg>
